<svg width="14" height="14" viewBox="0 0 14 14" fill="none" xmlns="http://www.w3.org/2000/svg">
<path d="M12.7746 7.59732L7.35789 13.014C7.25486 13.1126 7.13337 13.1899 7.00039 13.2415C6.73664 13.3498 6.44081 13.3498 6.17706 13.2415C6.04408 13.1899 5.92259 13.1126 5.81956 13.014L0.402889 7.59732C0.30188 7.49631 0.221756 7.3764 0.167091 7.24443C0.112426 7.11245 0.0842896 6.971 0.0842896 6.82816C0.0842896 6.53966 0.198893 6.26298 0.402889 6.05899C0.606885 5.85499 0.883562 5.74039 1.17206 5.74039C1.46055 5.74039 1.73723 5.85499 1.94122 6.05899L5.50539 9.63399V1.41149C5.50539 1.12417 5.61953 0.84862 5.82269 0.645456C6.02585 0.442291 6.3014 0.328156 6.58872 0.328156C6.87604 0.328156 7.15159 0.442291 7.35475 0.645456C7.55792 0.84862 7.67206 1.12417 7.67206 1.41149V9.63399L11.2362 6.05899C11.3369 5.95745 11.4567 5.87686 11.5888 5.82186C11.7208 5.76686 11.8624 5.73854 12.0054 5.73854C12.1484 5.73854 12.29 5.76686 12.422 5.82186C12.554 5.87686 12.6738 5.95745 12.7746 6.05899C12.8761 6.1597 12.9567 6.27952 13.0117 6.41153C13.0667 6.54354 13.095 6.68514 13.095 6.82816C13.095 6.97117 13.0667 7.11277 13.0117 7.24478C12.9567 7.37679 12.8761 7.49661 12.7746 7.59732Z" fill="#004911"/>
</svg>
