<svg width="26" height="29" viewBox="0 0 26 29" fill="none" xmlns="http://www.w3.org/2000/svg">
<path d="M15.4581 26.9031C13.8977 24.6135 12.2643 21.5947 12.2643 18.8822C12.2643 16.2135 13.6643 13.7781 15.7643 12.3197H15.181V9.40308H18.0977V11.1968C18.8268 10.9927 19.556 10.8614 20.2852 10.8614C20.5331 10.8614 20.781 10.8614 21.0143 10.9052V0.653076H0.597656V26.9031H9.34766V21.7989H12.2643V26.9031H15.4581ZM15.181 3.56974H18.0977V6.48641H15.181V3.56974ZM6.43099 23.9864H3.51432V21.0697H6.43099V23.9864ZM6.43099 18.1531H3.51432V15.2364H6.43099V18.1531ZM6.43099 12.3197H3.51432V9.40308H6.43099V12.3197ZM6.43099 6.48641H3.51432V3.56974H6.43099V6.48641ZM9.34766 3.56974H12.2643V6.48641H9.34766V3.56974ZM9.34766 9.40308H12.2643V12.3197H9.34766V9.40308ZM9.34766 18.1531V15.2364H12.2643V18.1531H9.34766ZM20.2852 13.7781C17.5143 13.7781 15.181 16.126 15.181 18.8822C15.181 22.6885 20.2852 28.3614 20.2852 28.3614C20.2852 28.3614 25.3893 22.6885 25.3893 18.8822C25.3893 16.126 23.056 13.7781 20.2852 13.7781ZM20.2852 20.7927C19.2643 20.7927 18.5352 19.9177 18.5352 19.0427C18.5352 18.0218 19.4102 17.2927 20.2852 17.2927C21.1602 17.2927 22.0352 18.1531 22.0352 19.0427C22.181 19.9177 21.306 20.7927 20.2852 20.7927Z" fill="#004911"/>
</svg>
