<svg width="36" height="36" viewBox="0 0 36 36" fill="none" xmlns="http://www.w3.org/2000/svg">
<path d="M29.4729 16.3181H32.3896C32.3896 8.83687 26.7415 3.19458 19.25 3.19458V6.11125C25.1738 6.11125 29.4729 10.4031 29.4729 16.3181Z" fill="#004911"/>
<path d="M19.2654 11.9445C22.3323 11.9445 23.6404 13.2526 23.6404 16.3195H26.5571C26.5571 11.6164 23.9685 9.02786 19.2654 9.02786V11.9445ZM24.2558 19.8822C23.9756 19.6275 23.6073 19.4917 23.2289 19.5034C22.8504 19.5151 22.4912 19.6734 22.2273 19.9449L18.7375 23.5339C17.8975 23.3735 16.2087 22.847 14.4704 21.1131C12.7321 19.3733 12.2056 17.6801 12.0496 16.846L15.6356 13.3547C15.9074 13.091 16.066 12.7318 16.0777 12.3532C16.0894 11.9746 15.9533 11.6062 15.6983 11.3262L10.3098 5.40098C10.0546 5.12004 9.7 4.94963 9.32123 4.92594C8.94247 4.90225 8.56938 5.02715 8.28122 5.27411L5.11664 7.98806C4.86451 8.24111 4.71402 8.57789 4.69372 8.93452C4.67184 9.2991 4.25476 17.9354 10.9514 24.6349C16.7935 30.4756 24.1114 30.9029 26.1268 30.9029C26.4214 30.9029 26.6023 30.8941 26.6504 30.8912C27.007 30.8712 27.3436 30.7201 27.5954 30.4668L30.3079 27.3008C30.555 27.0128 30.6802 26.6398 30.6567 26.2611C30.6333 25.8823 30.4632 25.5276 30.1825 25.2722L24.2558 19.8822V19.8822Z" fill="#004911"/>
</svg>
