<svg width="35" height="36" viewBox="0 0 35 36" fill="none" xmlns="http://www.w3.org/2000/svg">
<path d="M16.0424 22.6691C16.0424 23.0559 16.1961 23.4268 16.4696 23.7003C16.7431 23.9738 17.114 24.1274 17.5008 24.1274C17.8875 24.1274 18.2585 23.9738 18.532 23.7003C18.8055 23.4268 18.9591 23.0559 18.9591 22.6691V12.2303L23.6885 16.9597L25.7506 14.8976L17.5008 6.64783L9.25098 14.8976L11.3131 16.9597L16.0424 12.2332V22.6705V22.6691Z" fill="black"/>
<path d="M5.83398 21.2312H8.75065V27.0645H26.2506V21.2312H29.1673V27.0645C29.1673 27.838 28.86 28.5799 28.313 29.1269C27.7661 29.6739 27.0242 29.9812 26.2506 29.9812H8.75065C7.9771 29.9812 7.23524 29.6739 6.68826 29.1269C6.14127 28.5799 5.83398 27.838 5.83398 27.0645V21.2312Z" fill="black"/>
</svg>
