<svg width="19" height="18" viewBox="0 0 19 18" fill="none" xmlns="http://www.w3.org/2000/svg">
<path d="M10.9764 4.99999C13.0794 4.99999 13.9764 5.89699 13.9764 7.99999H15.9764C15.9764 4.77499 14.2014 2.99999 10.9764 2.99999V4.99999ZM14.3984 10.443C14.2062 10.2683 13.9537 10.1752 13.6942 10.1832C13.4346 10.1912 13.1884 10.2998 13.0074 10.486L10.6144 12.947C10.0384 12.837 8.88036 12.476 7.68836 11.287C6.49636 10.094 6.13536 8.93299 6.02836 8.361L8.48736 5.96699C8.67377 5.78612 8.78249 5.53982 8.79052 5.2802C8.79854 5.02059 8.70524 4.76804 8.53036 4.57599L4.83536 0.512995C4.6604 0.320352 4.41724 0.203499 4.15751 0.187255C3.89778 0.17101 3.64195 0.256653 3.44436 0.425995L1.27436 2.28699C1.10147 2.46051 0.998276 2.69145 0.984356 2.93599C0.969356 3.18599 0.683356 9.108 5.27536 13.702C9.28136 17.707 14.2994 18 15.6814 18C15.8834 18 16.0074 17.994 16.0404 17.992C16.2849 17.9783 16.5157 17.8747 16.6884 17.701L18.5484 15.53C18.7178 15.3325 18.8036 15.0768 18.7876 14.817C18.7715 14.5573 18.6549 14.3141 18.4624 14.139L14.3984 10.443Z" fill="black" fill-opacity="0.87"/>
</svg>
